<svg width="800" height="500" xmlns="http://www.w3.org/2000/svg">
 <title>logo</title>

 <g>
  <title>Layer 1</title>
  <path fill="none" d="m78,80c-169,390.44736 596,400.99999 596,400.99999" id="svg_8" stroke="#00ffff" opacity="NaN" stroke-width="20"/>
  <path transform="rotate(-7.12421 456.5 168.5)" fill="none" stroke="#00ffff" stroke-width="20" opacity="NaN" d="m740,346c-156,-311 -567,-355 -567,-355" id="svg_9"/>
  <path transform="rotate(1.2333 736.738 418.675)" stroke="#00ff00" fill="none" stroke-width="2" d="m761.39496,411.31601c0.05296,-0.45731 0.08362,-0.91931 0.08362,-1.386c0,-8.09552 -7.79948,-14.65731 -17.42199,-14.65731c-7.46776,0 -13.82052,3.961 -16.29862,9.51904c-1.64185,-1.51498 -3.98336,-2.48354 -6.61199,-2.48354c-4.9562,0 -8.97303,3.37939 -8.97303,7.5491c0,0.49249 0.06411,0.97325 0.17283,1.43758c-6.61199,0.91697 -11.67134,5.71283 -11.67134,11.53355c0,6.47735 6.24126,11.72585 13.93759,11.72585l9.48871,0l-1.97077,-1.65803c-1.05089,-0.88413 -1.6307,-2.0614 -1.6307,-3.31373c0,-1.24998 0.5798,-2.42724 1.6307,-3.31138l1.54986,-1.30626c1.115,-0.93572 2.6119,-1.47277 4.10045,-1.47277c0.07526,0 0.15053,0 0.223,0.00469l0,-1.10692c0,-2.58906 2.50319,-4.69503 5.57504,-4.69503l9.10404,0c3.07464,0 5.57504,2.10596 5.57504,4.69503l0,1.10692c0.07526,-0.00469 0.15053,-0.00469 0.22579,-0.00469c1.48575,0 2.98265,0.53705 4.09765,1.47746l1.55264,1.29453c2.17426,1.83158 2.17426,4.80759 0,6.63214l-1.96799,1.65803l6.69841,0c7.69913,0 13.93759,-5.24848 13.93759,-11.72585c0.00278,-5.74801 -4.91997,-10.5087 -11.40653,-11.51244l-0.00001,0zm-9.23226,16.60849l-1.54986,-1.30156c-1.08714,-0.91227 -2.68717,-1.05532 -3.55687,-0.32129c-0.8697,0.7317 -1.58331,0.27673 -1.58331,-1.01311l0,-2.90332c0,-1.28984 -1.25717,-2.34517 -2.78752,-2.34517l-9.10125,0c-1.53313,0 -2.78752,1.05532 -2.78752,2.34517l0,2.90332c0,1.28984 -0.7136,1.74481 -1.5861,1.01311c-0.8697,-0.73404 -2.47253,-0.59099 -3.55687,0.32129l-1.54986,1.30156c-1.08714,0.91227 -1.08714,2.40146 -0.00278,3.31373l12.06438,10.15693c0.54078,0.45497 1.25717,0.68245 1.97077,0.68245s1.42721,-0.22748 1.97077,-0.68245l12.06159,-10.15693c1.08434,-0.90992 1.08156,-2.40146 -0.00558,-3.31373z" id="svg_10"/>
  <path fill="none" stroke="#00ff00" stroke-width="2" d="m125.46172,41.83644c0.04626,-0.42988 0.07305,-0.86417 0.07305,-1.30287c0,-7.61 -6.81278,-13.77825 -15.21798,-13.77825c-6.52303,0 -12.07212,3.72343 -14.23672,8.94814c-1.43414,-1.42412 -3.47944,-2.33459 -5.77553,-2.33459c-4.32921,0 -7.83787,3.17671 -7.83787,7.09635c0,0.46295 0.056,0.91488 0.15096,1.35137c-5.77553,0.86197 -10.19483,5.37021 -10.19483,10.84183c0,6.08888 5.45169,11.0226 12.17438,11.0226l5.62943,0c-0.30679,-0.5864 -0.48698,-1.22571 -0.48698,-1.89368c0,-1.17942 0.50645,-2.2927 1.42927,-3.1194l10.53084,-9.54336c0.91308,-0.8311 2.13539,-1.28964 3.44048,-1.28964c1.31483,0 2.53714,0.46295 3.45022,1.29405l10.52597,9.54336c0.91795,0.82229 1.4244,1.93557 1.4244,3.11499c0,0.67017 -0.17775,1.30948 -0.48698,1.89368l3.19456,0c6.72513,0 12.17438,-4.93371 12.17438,-11.0226c0.00487,-5.40328 -4.29512,-9.87845 -9.96108,-10.82199l0.00003,0.00001zm-18.60002,8.84453c-0.46993,-0.42988 -1.09569,-0.64152 -1.71902,-0.64152s-1.24666,0.21163 -1.72146,0.64152l-10.53571,9.54557c-0.9496,0.85756 -0.94717,2.25963 0.00243,3.11719l1.35379,1.22351c0.9496,0.85756 2.34722,0.98983 3.1069,0.30202s1.38301,-0.26234 1.38301,0.95235l0,2.7292c0,1.21028 1.09813,2.20452 2.43488,2.20452l7.94987,0c1.34162,0 2.43488,-0.99424 2.43488,-2.20452l0,-2.7292c0,-1.21469 0.62333,-1.64016 1.38544,-0.95235c0.75968,0.68781 2.15974,0.55554 3.1069,-0.30202l1.35379,-1.22351c0.9496,-0.85756 0.9496,-2.25963 0.00243,-3.11719l-10.53815,-9.54557l0.00002,0z" id="svg_11"/>
  <polyline stroke-linecap="round" id="svg_4" points="577,371 578,371 " stroke-width="0" stroke="#000" fill="none"/>
  <line stroke="#000" stroke-width="5" id="svg_13" y2="385" x2="287" y1="189" x1="239" fill="none"/>
  <ellipse transform="rotate(-10.5881 286.115 209.339)" stroke="#000" stroke-width="5" ry="55.59319" rx="40.72854" id="svg_15" cy="209.33869" cx="286.11498" fill="none"/>
  <line stroke-width="5" id="svg_17" y2="366" x2="405" y1="247" x1="253" stroke="#000" fill="none"/>
  <line id="svg_18" y2="362" x2="451" y1="149" x1="386" stroke-width="5" stroke="#000" fill="none"/>
  <line stroke="#000" id="svg_19" y2="151" x2="386" y1="331" x1="502" stroke-width="5" fill="none"/>
  <line transform="rotate(8.35423 502.5 229.5)" stroke="#000" id="svg_21" y2="129.00001" x2="487" y1="330" x1="518" stroke-width="5" fill="none"/>
  <line id="svg_24" y2="339" x2="570" y1="126" x1="505" stroke-width="5" stroke="#000" fill="none"/>
 </g>
</svg>